<?xml version="1.0" encoding="UTF-8"?>
<svg width="24px" height="42px" viewBox="0 0 24 42" version="1.1" xmlns="http://www.w3.org/2000/svg" xmlns:xlink="http://www.w3.org/1999/xlink">
    <title>Group 12</title>
    <defs>
        <polygon id="path-1" points="0 0.77112 23.33772 0.77112 23.33772 40.5 0 40.5"></polygon>
        <polygon id="path-3" points="0.299376 0.697248 14.42772 0.697248 14.42772 17.01 0.299376 17.01"></polygon>
        <polygon id="path-5" points="0.000972 0.77112 19.278972 0.77112 19.278972 26.20885 0.000972 26.20885"></polygon>
    </defs>
    <g id="Page-1" stroke="none" stroke-width="1" fill="none" fill-rule="evenodd">
        <g id="Noticeboard" transform="translate(-709.000000, -1417.000000)">
            <g id="Group-43" transform="translate(635.000000, 1321.000000)">
                <g id="Group-12" transform="translate(74.000000, 96.000000)">
                    <g id="Group-3" transform="translate(0.000000, 0.040176)">
                        <mask id="mask-2" fill="white">
                            <use xlink:href="#path-1"></use>
                        </mask>
                        <g id="Clip-2"></g>
                        <path d="M23.339016,40.108608 C23.339016,40.367808 23.206176,40.500648 22.946976,40.500648 C22.687776,40.500648 22.558176,40.367808 22.558176,40.108608 C22.558176,38.757528 22.052736,37.691568 21.035376,36.910728 C20.021256,36.126648 18.757656,35.452728 17.251056,34.882488 C16.314696,34.464528 15.375096,34.020648 14.438736,33.554088 C13.502376,33.084288 12.643776,32.484888 11.862936,31.759128 C10.093896,29.990088 9.209376,27.595728 9.209376,24.576048 C9.209376,24.316848 9.338976,24.187248 9.601416,24.187248 C9.860616,24.187248 9.990216,24.316848 9.990216,24.576048 C9.990216,27.385128 10.796976,29.572128 12.410496,31.130568 C13.139496,31.807728 13.959216,32.381208 14.869656,32.851008 C15.780096,33.317568 16.677576,33.735528 17.562096,34.101648 C19.123776,34.671888 20.461896,35.387928 21.582936,36.246528 C22.700736,37.105128 23.287176,38.394648 23.339016,40.108608 M5.463936,10.368648 C5.463936,11.256408 5.295456,11.998368 4.955256,12.594528 C4.618296,13.193928 4.200336,13.492008 3.707856,13.492008 C3.212136,13.492008 2.784456,13.193928 2.418336,12.594528 C2.055456,11.998368 1.874016,11.256408 1.874016,10.368648 C1.874016,9.487368 2.055456,8.758368 2.418336,8.184888 C2.784456,7.614648 3.212136,7.326288 3.707856,7.326288 C4.200336,7.326288 4.618296,7.614648 4.955256,8.184888 C5.295456,8.758368 5.463936,9.487368 5.463936,10.368648 M10.537776,24.342768 C10.537776,24.446448 10.563696,24.550128 10.615536,24.653808 L10.771056,25.123608 C10.822896,25.227288 10.822896,25.330968 10.771056,25.437888 L10.771056,25.593408 C10.563696,25.904448 10.275336,26.098848 9.912456,26.176608 C9.549576,26.257608 9.209376,26.189568 8.898336,25.982208 C8.742816,25.875288 8.613216,25.745688 8.506296,25.593408 L8.428536,25.437888 L8.428536,25.123608 L8.742816,24.342768 C7.284816,23.717448 5.710176,22.327488 4.018896,20.166408 C2.327616,18.008568 1.119096,15.653088 0.390096,13.103208 C0.127656,12.218688 -0.001944,11.305008 -0.001944,10.368648 C0.053136,7.663248 0.989496,5.401728 2.810376,3.580848 C4.631256,1.759968 6.892776,0.823608 9.601416,0.768528 C12.358656,0.823608 14.633136,1.759968 16.431336,3.580848 C18.226296,5.401728 19.175616,7.663248 19.279296,10.368648 C19.279296,11.305008 19.149696,12.218688 18.887256,13.103208 C18.109656,15.653088 16.871976,18.008568 15.180696,20.166408 C13.489416,22.327488 11.940696,23.717448 10.537776,24.342768" id="Fill-1" mask="url(#mask-2)"></path>
                    </g>
                    <g id="Group-6" transform="translate(8.910000, 23.530176)">
                        <mask id="mask-4" fill="white">
                            <use xlink:href="#path-3"></use>
                        </mask>
                        <g id="Clip-5"></g>
                        <path d="M14.429016,16.618608 C14.429016,16.877808 14.296176,17.010648 14.036976,17.010648 C13.777776,17.010648 13.648176,16.877808 13.648176,16.618608 C13.648176,15.267528 13.142736,14.201568 12.125376,13.420728 C11.111256,12.636648 9.847656,11.962728 8.341056,11.392488 C7.404696,10.974528 6.465096,10.530648 5.528736,10.064088 C4.592376,9.594288 3.733776,8.994888 2.952936,8.269128 C1.183896,6.500088 0.299376,4.105728 0.299376,1.086048 C0.299376,0.826848 0.428976,0.697248 0.691416,0.697248 C0.950616,0.697248 1.080216,0.826848 1.080216,1.086048 C1.080216,3.895128 1.886976,6.082128 3.500496,7.640568 C4.229496,8.317728 5.049216,8.891208 5.959656,9.361008 C6.870096,9.827568 7.767576,10.245528 8.652096,10.611648 C10.213776,11.181888 11.551896,11.897928 12.672936,12.756528 C13.790736,13.615128 14.377176,14.904648 14.429016,16.618608" id="Fill-4" fill="#597B91" mask="url(#mask-4)"></path>
                    </g>
                    <g id="Group-9" transform="translate(0.000000, 0.040176)">
                        <mask id="mask-6" fill="white">
                            <use xlink:href="#path-5"></use>
                        </mask>
                        <g id="Clip-8"></g>
                        <path d="M10.537452,24.341796 C10.537452,24.445476 10.563372,24.549156 10.615212,24.656076 L10.770732,25.122636 C10.822572,25.226316 10.822572,25.333236 10.770732,25.436916 L10.770732,25.592436 C10.563372,25.903476 10.275012,26.097876 9.912132,26.175636 C9.549252,26.256636 9.209052,26.188596 8.898012,25.981236 C8.742492,25.877556 8.612892,25.747956 8.509212,25.592436 L8.431452,25.436916 L8.431452,25.122636 L8.742492,24.341796 C7.284492,23.719716 5.709852,22.326516 4.018572,20.165436 C2.327292,18.007596 1.118772,15.652116 0.389772,13.102236 C0.130572,12.217716 0.000972,11.307276 0.000972,10.370916 C0.052812,7.665516 0.989172,5.400756 2.810052,3.579876 C4.630932,1.758996 6.892452,0.822636 9.601092,0.770796 C12.358332,0.822636 14.636052,1.758996 16.431012,3.579876 C18.225972,5.400756 19.175292,7.665516 19.278972,10.370916 C19.278972,11.307276 19.149372,12.217716 18.890172,13.102236 C18.109332,15.652116 16.871652,18.007596 15.183612,20.165436 C13.489092,22.326516 11.943612,23.719716 10.537452,24.341796" id="Fill-7" fill="#FF473E" mask="url(#mask-6)"></path>
                    </g>
                    <path d="M5.463936,10.409472 C5.463936,11.293992 5.295456,12.039192 4.955256,12.635352 C4.618296,13.234752 4.200336,13.532832 3.707856,13.532832 C3.212136,13.532832 2.784456,13.234752 2.421576,12.635352 C2.055456,12.039192 1.874016,11.293992 1.874016,10.409472 C1.874016,9.528192 2.055456,8.799192 2.421576,8.225712 C2.784456,7.652232 3.212136,7.367112 3.707856,7.367112 C4.200336,7.367112 4.618296,7.652232 4.955256,8.225712 C5.295456,8.799192 5.463936,9.528192 5.463936,10.409472" id="Fill-10" fill="#FFA9BA"></path>
                </g>
            </g>
        </g>
    </g>
</svg>