<?xml version="1.0" encoding="UTF-8"?>
<svg width="32px" height="34px" viewBox="0 0 32 34" version="1.1" xmlns="http://www.w3.org/2000/svg" xmlns:xlink="http://www.w3.org/1999/xlink">
    <title>Group 14</title>
    <defs>
        <polygon id="path-1" points="0.000251995004 0.6975072 19.377792 0.6975072 19.377792 24.2996112 0.000251995004 24.2996112"></polygon>
        <polygon id="path-3" points="0.1994544 0.7741008 19.2137184 0.7741008 19.2137184 5.832 0.1994544 5.832"></polygon>
        <polygon id="path-5" points="0.000251867399 0.6971184 19.377792 0.6971184 19.377792 21.9586464 0.000251867399 21.9586464"></polygon>
    </defs>
    <g id="Page-1" stroke="none" stroke-width="1" fill="none" fill-rule="evenodd">
        <g id="Noticeboard" transform="translate(-926.000000, -11.000000)">
            <g id="Group-21" transform="translate(926.000000, 11.000000)">
                <g id="Group-14" transform="translate(16.000000, 17.000000) rotate(33.000000) translate(-16.000000, -17.000000) translate(6.000000, 4.000000)">
                    <g id="Group-3" transform="translate(0.000000, 0.275854)">
                        <mask id="mask-2" fill="white">
                            <use xlink:href="#path-1"></use>
                        </mask>
                        <g id="Clip-2"></g>
                        <path d="M12.8912472,4.1617152 L12.9379032,4.2083712 L13.1245272,4.3502832 C13.2508872,4.4435952 13.3675272,4.5446832 13.4783352,4.6535472 C13.5852552,4.7643552 13.6882872,4.8965472 13.7815992,5.0520672 L14.1101352,5.5186272 L14.5766952,6.6422592 L14.7166632,7.2040752 C14.9052312,7.9875072 15.0140952,8.6737392 15.0451992,9.2666592 L15.0451992,10.2503232 C15.0140952,10.5633072 14.8877352,10.8199152 14.6719512,11.0220912 C14.4522792,11.2262112 14.1859512,11.3214672 13.8749112,11.3039712 C13.5638712,11.2884192 13.3053192,11.1795552 13.1011992,10.9754352 C12.8990232,10.7732592 12.7979352,10.5166512 12.7979352,10.2017232 L12.7512792,9.4066272 C12.7512792,9.1888992 12.7201752,8.9381232 12.6579672,8.6581872 L12.6093672,8.1896832 L12.3760872,7.3479312 L12.1408632,6.8308272 L11.7676152,6.3623232 L11.5790472,6.1756992 C11.2991112,5.9871312 11.1202632,5.7460752 11.0425032,5.4486432 C10.9627992,5.1531552 11.0172312,4.8557232 11.2057992,4.5602352 C11.3924232,4.2647472 11.6412552,4.0839552 11.9561832,4.0217472 C12.2672232,3.9595392 12.5627112,4.0061952 12.8465352,4.1617152 L12.8912472,4.1617152 Z M10.9239192,15.0267312 L10.9239192,15.1219872 L11.2524552,16.0570512 L11.7676152,17.7424992 L12.1408632,19.6165152 C12.2361192,20.0228112 12.2827752,20.3824512 12.2827752,20.6934912 L12.2827752,21.1153392 L12.2361192,21.4438752 L12.1894632,21.7238112 C11.9386872,22.4411472 11.4935112,22.9582512 10.8539352,23.2692912 C10.2143592,23.5803312 9.5339592,23.6133792 8.8166232,23.3626032 C8.0040312,23.0515632 7.4577672,22.5052992 7.1778312,21.7238112 L7.0845192,21.1153392 L7.0845192,20.6934912 C7.0845192,20.3824512 7.1311752,20.0228112 7.2244872,19.6165152 L7.6463352,17.7424992 L8.1148392,16.0570512 L8.4880872,15.0267312 C8.6144472,14.6826432 8.8399512,14.4415872 9.1684872,14.3016192 C9.4970232,14.1616512 9.8313912,14.1616512 10.1754792,14.3016192 C10.5176232,14.4415872 10.7664552,14.6826432 10.9239192,15.0267312 L10.9239192,15.0267312 Z M9.7069752,24.2996112 C7.0203672,24.2685072 4.7808792,24.0196752 2.9865672,23.5511712 C1.1903112,23.0807232 0.2610792,22.4897472 0.2008152,21.7724112 C0.2610792,21.0531312 1.1903112,20.4524352 2.9865672,19.9683792 C4.7808792,19.4843232 7.0203672,19.2432672 9.7069752,19.2432672 C12.3916392,19.2432672 14.6252952,19.4843232 16.4040552,19.9683792 C18.1847592,20.4524352 19.1198232,21.0531312 19.2131352,21.7724112 C19.1198232,22.4897472 18.1847592,23.0807232 16.4040552,23.5511712 C14.6252952,24.0196752 12.3916392,24.2685072 9.7069752,24.2996112 L9.7069752,24.2996112 Z M19.1684232,20.4602112 C19.4483592,20.9909232 19.4483592,21.4730352 19.1684232,21.9123792 C19.1975832,21.8501712 19.2131352,21.7860192 19.2131352,21.7238112 C19.1198232,21.0686832 18.1847592,20.5379712 16.4040552,20.1316752 C14.6252952,19.7273232 12.3916392,19.5232032 9.7069752,19.5232032 C7.0203672,19.5232032 4.7808792,19.7273232 2.9865672,20.1316752 C1.1903112,20.5379712 0.2610792,21.0686832 0.2008152,21.7238112 C0.2008152,21.7860192 0.2144232,21.8637792 0.2455272,21.9570912 C-0.0655128,21.5216352 -0.0810648,21.0220272 0.2008152,20.4602112 C0.9181512,19.2724272 1.5888312,17.7133392 2.2128552,15.7771152 C2.8368792,13.8408912 3.1654152,11.5314192 3.1984632,8.8448112 C3.2276232,7.2215712 3.7427832,5.8316112 4.7439432,4.6768752 C5.7412152,3.5221392 7.0203672,2.7892512 8.5833432,2.4762672 L8.5833432,1.8211392 C8.5833432,1.5081552 8.6922072,1.2418272 8.9099352,1.0240992 C9.1276632,0.8044272 9.3939912,0.6975072 9.7069752,0.6975072 C10.0180152,0.6975072 10.2843432,0.8044272 10.5020712,1.0240992 C10.7217432,1.2418272 10.8306072,1.5081552 10.8306072,1.8211392 L10.8306072,2.4762672 C11.1435912,2.5384752 11.4390792,2.6162352 11.7190152,2.7095472 C13.0934232,3.1488912 14.1703992,3.9128832 14.9538312,5.0054112 C15.7314312,6.0979392 16.1377272,7.3615392 16.1707752,8.7981552 C16.1999352,11.4517152 16.5284712,13.7611872 17.1524952,15.7285152 C17.7784632,17.6958432 18.4471992,19.2724272 19.1684232,20.4602112 L19.1684232,20.4602112 Z" id="Fill-1" mask="url(#mask-2)"></path>
                    </g>
                    <g id="Group-6" transform="translate(0.000000, 18.743854)">
                        <mask id="mask-4" fill="white">
                            <use xlink:href="#path-3"></use>
                        </mask>
                        <g id="Clip-5"></g>
                        <path d="M9.7075584,5.8323888 C7.0209504,5.7993408 4.7814624,5.5505088 2.9871504,5.0820048 C1.1908944,4.6135008 0.2616624,4.0205808 0.1994544,3.3032448 C0.2616624,2.5859088 1.1908944,1.9852128 2.9871504,1.4992128 C4.7814624,1.0151568 7.0209504,0.7741008 9.7075584,0.7741008 C12.3922224,0.7741008 14.6239344,1.0151568 16.4026944,1.4992128 C18.1833984,1.9852128 19.1204064,2.5859088 19.2137184,3.3032448 C19.1204064,4.0205808 18.1833984,4.6135008 16.4026944,5.0820048 C14.6239344,5.5505088 12.3922224,5.7993408 9.7075584,5.8323888" id="Fill-4" fill="#A06C33" mask="url(#mask-4)"></path>
                    </g>
                    <path d="M10.9245024,15.3023904 L10.9245024,15.3976464 L11.2530384,16.3327104 L11.7681984,18.0181584 L12.1414464,19.8921744 C12.2367024,20.2984704 12.2814144,20.6581104 12.2814144,20.9691504 L12.2814144,21.3909984 L12.2367024,21.7195344 L12.1881024,21.9994704 C11.9373264,22.7168064 11.4940944,23.2339104 10.8545184,23.5449504 C10.2149424,23.8559904 9.5345424,23.8890384 8.8172064,23.6382624 C8.0046144,23.3272224 7.4583504,22.7809584 7.1764704,21.9994704 L7.0831584,21.3909984 L7.0831584,20.9691504 C7.0831584,20.6581104 7.1317584,20.2984704 7.2250704,19.8921744 L7.6449744,18.0181584 L8.1154224,16.3327104 L8.4886704,15.3023904 C8.6150304,14.9583024 8.8405344,14.7172464 9.1690704,14.5772784 C9.4976064,14.4373104 9.8319744,14.4373104 10.1741184,14.5772784 C10.5182064,14.7172464 10.7670384,14.9583024 10.9245024,15.3023904" id="Fill-7" fill="#FFD469"></path>
                    <g id="Group-11" transform="translate(0.000000, 0.275854)">
                        <mask id="mask-6" fill="white">
                            <use xlink:href="#path-5"></use>
                        </mask>
                        <g id="Clip-10"></g>
                        <path d="M19.1674512,20.4598224 C19.4493312,20.9905344 19.4493312,21.4726464 19.1674512,21.9119904 C19.1985552,21.8497824 19.2121632,21.7875744 19.2121632,21.7234224 C19.1207952,21.0682944 18.1837872,20.5375824 16.4030832,20.1312864 C14.6243232,19.7269344 12.3926112,19.5247584 9.7079472,19.5247584 C7.0213392,19.5247584 4.7818512,19.7269344 2.9875392,20.1312864 C1.1912832,20.5375824 0.2601072,21.0682944 0.1998432,21.7234224 C0.1998432,21.7875744 0.2153952,21.8653344 0.2464992,21.9586464 C-0.0664848,21.5212464 -0.0800928,21.0216384 0.1998432,20.4598224 C0.9171792,19.2739824 1.5878592,17.7129504 2.2118832,15.7767264 C2.8378512,13.8405024 3.1663872,11.5310304 3.1974912,8.8444224 C3.2285952,7.2211824 3.7418112,5.8331664 4.7429712,4.6764864 C5.7421872,3.5217504 7.0213392,2.7888624 8.5843152,2.4758784 L8.5843152,1.8207504 C8.5843152,1.5077664 8.6912352,1.2414384 8.9109072,1.0237104 C9.1286352,0.8059824 9.3949632,0.6971184 9.7079472,0.6971184 C10.0189872,0.6971184 10.2853152,0.8059824 10.5030432,1.0237104 C10.7207712,1.2414384 10.8315792,1.5077664 10.8315792,1.8207504 L10.8315792,2.4758784 C11.1426192,2.5380864 11.4381072,2.6158464 11.7199872,2.7091584 C13.0943952,3.1485024 14.1713712,3.9124944 14.9528592,5.0050224 C15.7304592,6.0975504 16.1367552,7.3630944 16.1698032,8.7977664 C16.2009072,11.4513264 16.5294432,13.7627424 17.1534672,15.7281264 C17.7774912,17.6954544 18.4481712,19.2739824 19.1674512,20.4598224" id="Fill-9" fill="#FFB636" mask="url(#mask-6)"></path>
                    </g>
                    <path d="M12.8912472,4.4375688 L12.9379032,4.4842248 L13.1245272,4.6261368 C13.2508872,4.7194488 13.3675272,4.8205368 13.4783352,4.9294008 C13.5852552,5.0402088 13.6882872,5.1724008 13.7815992,5.3279208 L14.1101352,5.7944808 L14.5766952,6.9181128 L14.7166632,7.4799288 C14.9052312,8.2633608 15.0140952,8.9495928 15.0451992,9.5425128 L15.0451992,10.5261768 C15.0140952,10.8391608 14.8877352,11.0957688 14.6719512,11.2979448 C14.4522792,11.5020648 14.1859512,11.5973208 13.8749112,11.5798248 C13.5638712,11.5642728 13.3053192,11.4554088 13.1011992,11.2512888 C12.8990232,11.0491128 12.7979352,10.7925048 12.7979352,10.4775768 L12.7512792,9.6824808 C12.7512792,9.4647528 12.7201752,9.2139768 12.6579672,8.9340408 L12.6093672,8.4655368 L12.3760872,7.6237848 L12.1408632,7.1066808 L11.7676152,6.6381768 L11.5790472,6.4515528 C11.2991112,6.2629848 11.1202632,6.0219288 11.0425032,5.7244968 C10.9627992,5.4290088 11.0172312,5.1315768 11.2057992,4.8360888 C11.3924232,4.5406008 11.6412552,4.3598088 11.9561832,4.2976008 C12.2672232,4.2353928 12.5627112,4.2820488 12.8465352,4.4375688 L12.8912472,4.4375688 Z" id="Fill-12" fill="#FFD469"></path>
                </g>
            </g>
        </g>
    </g>
</svg>