<?xml version="1.0" encoding="UTF-8"?>
<svg width="36px" height="30px" viewBox="0 0 36 30" version="1.1" xmlns="http://www.w3.org/2000/svg" xmlns:xlink="http://www.w3.org/1999/xlink">
    <title>Group 10</title>
    <defs>
        <polygon id="path-1" points="0.00144 0.031968 35.59248 0.031968 35.59248 23.76 0.00144 23.76"></polygon>
    </defs>
    <g id="Page-1" stroke="none" stroke-width="1" fill="none" fill-rule="evenodd">
        <g id="Noticeboard" transform="translate(-703.000000, -1503.000000)">
            <g id="Group-43" transform="translate(635.000000, 1321.000000)">
                <g id="Group-10" transform="translate(68.000000, 182.000000)">
                    <g id="Group-3" transform="translate(0.000000, 5.311296)">
                        <mask id="mask-2" fill="white">
                            <use xlink:href="#path-1"></use>
                        </mask>
                        <g id="Clip-2"></g>
                        <path d="M35.24688,3.430368 C35.47728,3.663648 35.59248,3.963168 35.59248,4.331808 L35.59248,15.503328 C35.59248,16.661088 35.29296,17.689248 34.69104,18.590688 C34.08912,19.492128 33.30288,20.197728 32.33232,20.707488 L32.33232,22.510368 C32.33232,22.879008 32.21712,23.181408 31.98672,23.411808 C31.75344,23.645088 31.45392,23.760288 31.0824,23.760288 L25.94736,23.760288 C25.57872,23.760288 25.2792,23.645088 25.04592,23.411808 C24.81552,23.181408 24.67728,22.879008 24.6312,22.510368 L24.6312,21.191328 C23.7528,21.099168 23.07888,20.707488 22.61808,20.013408 L22.54896,19.944288 C22.27248,19.572768 21.73968,18.463968 20.95344,16.615008 C20.1672,14.763168 19.33488,12.937248 18.45648,11.131488 C18.31824,10.762848 18.29232,10.428768 18.38736,10.126368 C18.47952,9.826848 18.68688,9.596448 19.00944,9.432288 C19.33488,9.271008 19.78416,9.317088 20.36592,9.570528 C20.94192,9.826848 21.55536,10.647648 22.20336,12.032928 C22.29552,12.312288 22.3992,12.508128 22.5144,12.623328 C22.6296,12.738528 22.71024,12.729888 22.7592,12.588768 L22.7592,2.390688 C22.7592,2.019168 22.8744,1.719648 23.1048,1.489248 C23.3352,1.258848 23.63472,1.140768 24.00624,1.140768 C24.37776,1.140768 24.67728,1.258848 24.90768,1.489248 C25.13808,1.719648 25.2792,2.019168 25.32528,2.390688 L25.32528,8.841888 C25.32528,9.167328 25.452,9.340128 25.70544,9.363168 C25.95888,9.386208 26.13168,9.259488 26.22672,8.980128 L26.22672,1.279008 C26.22672,0.910368 26.34192,0.610848 26.57232,0.377568 C26.8056,0.147168 27.10512,0.031968 27.47664,0.031968 C27.84528,0.031968 28.1448,0.147168 28.37808,0.377568 C28.60848,0.610848 28.74672,0.910368 28.7928,1.279008 L28.7928,9.052128 C28.83888,9.282528 28.97712,9.397728 29.2104,9.397728 C29.4408,9.397728 29.57904,9.259488 29.62512,8.980128 L29.62512,2.249568 C29.62512,1.880928 29.74032,1.569888 29.9736,1.313568 C30.204,1.060128 30.5064,0.933408 30.87504,0.933408 C31.24368,0.933408 31.54608,1.060128 31.77648,1.313568 C32.00688,1.569888 32.148,1.880928 32.19408,2.249568 L32.19408,8.911008 C32.19408,9.236448 32.3064,9.409248 32.54256,9.432288 C32.77296,9.455328 32.95728,9.351648 33.09552,9.121248 L33.09552,4.331808 C33.09552,3.963168 33.21072,3.663648 33.444,3.430368 C33.6744,3.199968 33.97392,3.061728 34.34544,3.012768 C34.71408,3.061728 35.0136,3.199968 35.24688,3.430368 M17.20656,10.126368 C17.29872,10.428768 17.27568,10.762848 17.13744,11.131488 C16.30512,12.937248 15.48432,14.763168 14.67504,16.615008 C13.86576,18.463968 13.34448,19.572768 13.11408,19.944288 L13.04496,20.013408 C12.5352,20.707488 11.84112,21.099168 10.96272,21.191328 L10.96272,22.510368 C10.96272,22.879008 10.83312,23.181408 10.58256,23.411808 C10.32624,23.645088 10.0152,23.760288 9.64368,23.760288 L4.58064,23.760288 C4.20912,23.760288 3.8952,23.645088 3.64176,23.411808 C3.38832,23.181408 3.2616,22.879008 3.2616,22.510368 L3.2616,20.707488 C2.29104,20.197728 1.50192,19.492128 0.90288,18.590688 C0.30096,17.689248 0.00144,16.661088 0.00144,15.503328 L0.00144,4.331808 C0.00144,3.963168 0.12816,3.663648 0.3816,3.430368 C0.63504,3.199968 0.93744,3.084768 1.28304,3.084768 C1.63152,3.084768 1.93104,3.199968 2.18736,3.430368 C2.43792,3.663648 2.56752,3.963168 2.56752,4.331808 L2.56752,9.052128 C2.65968,9.328608 2.82096,9.443808 3.05136,9.397728 C3.28464,9.351648 3.42288,9.190368 3.46896,8.911008 L3.46896,2.249568 C3.46896,1.880928 3.58416,1.569888 3.81456,1.313568 C4.04784,1.060128 4.34736,0.933408 4.71888,0.933408 C5.08752,0.933408 5.38704,1.060128 5.62032,1.313568 C5.85072,1.569888 5.96592,1.880928 5.96592,2.249568 L5.96592,8.980128 C6.05808,9.213408 6.20784,9.340128 6.41808,9.363168 C6.62544,9.386208 6.7752,9.282528 6.86736,9.052128 L6.86736,1.279008 C6.86736,0.910368 6.98544,0.610848 7.21584,0.377568 C7.44624,0.147168 7.74864,0.031968 8.11728,0.031968 C8.48592,0.031968 8.78832,0.147168 9.0216,0.377568 C9.252,0.610848 9.3672,0.910368 9.3672,1.279008 L9.3672,9.052128 C9.50544,9.282528 9.68976,9.386208 9.92304,9.363168 C10.15344,9.340128 10.29168,9.167328 10.33776,8.841888 L10.33776,2.390688 C10.33776,2.019168 10.45296,1.719648 10.68624,1.489248 C10.91664,1.258848 11.21616,1.140768 11.58768,1.140768 C11.95632,1.140768 12.25872,1.258848 12.48912,1.489248 C12.71952,1.719648 12.85776,2.019168 12.90672,2.390688 L12.90672,12.588768 C12.90672,12.729888 12.96144,12.738528 13.07952,12.623328 C13.19472,12.508128 13.32144,12.312288 13.45968,12.032928 C14.0616,10.647648 14.652,9.826848 15.228,9.570528 C15.80688,9.317088 16.25904,9.282528 16.58448,9.466848 C16.90416,9.605088 17.1144,9.826848 17.20656,10.126368" id="Fill-1" fill="#FFD3B6" mask="url(#mask-2)"></path>
                    </g>
                    <path d="M14.709888,4.995648 C14.660928,5.041728 14.614848,5.064768 14.571648,5.064768 L14.499648,4.995648 L10.963008,3.054528 C10.916928,3.008448 10.893888,2.959488 10.893888,2.913408 C10.893888,2.867328 10.916928,2.821248 10.963008,2.775168 L12.489408,1.248768 C12.535488,1.202688 12.593088,1.179648 12.662208,1.179648 C12.731328,1.179648 12.765888,1.202688 12.765888,1.248768 L14.779008,4.788288 C14.779008,4.880448 14.755968,4.949568 14.709888,4.995648" id="Fill-4" fill="#00BEEA"></path>
                    <path d="M19.010304,0.277632 L17.970624,4.093632 C17.924544,4.185792 17.855424,4.231872 17.760384,4.231872 C17.668224,4.231872 17.625024,4.185792 17.625024,4.093632 L16.513344,0.277632 C16.513344,0.185472 16.524864,0.116352 16.547904,0.070272 C16.570944,0.024192 16.628544,0.001152 16.720704,0.001152 L18.872064,0.001152 C18.918144,0.001152 18.964224,0.024192 19.010304,0.070272 C19.056384,0.116352 19.056384,0.185472 19.010304,0.277632" id="Fill-6" fill="#00BEEA"></path>
                    <path d="M24.700032,2.914272 C24.700032,2.960352 24.676992,3.006432 24.630912,3.052512 L21.160512,4.996512 L21.022272,5.065632 C20.976192,5.065632 20.930112,5.042592 20.884032,4.996512 C20.837952,4.950432 20.837952,4.881312 20.884032,4.786272 L22.828032,1.249632 C22.874112,1.203552 22.931712,1.177632 23.000832,1.177632 C23.069952,1.177632 23.127552,1.203552 23.173632,1.249632 L24.630912,2.776032 C24.676992,2.822112 24.700032,2.868192 24.700032,2.914272" id="Fill-8" fill="#00BEEA"></path>
                </g>
            </g>
        </g>
    </g>
</svg>