<?xml version="1.0" encoding="UTF-8"?>
<svg width="36px" height="30px" viewBox="0 0 36 30" version="1.1" xmlns="http://www.w3.org/2000/svg" xmlns:xlink="http://www.w3.org/1999/xlink">
    <title>Group 17 Copy</title>
    <defs>
        <polygon id="path-1" points="0.0005832 0.390744 35.755992 0.390744 35.755992 28.431 0.0005832 28.431"></polygon>
        <polygon id="path-3" points="0 0.390744 35.755992 0.390744 35.755992 20.2714488 0 20.2714488"></polygon>
    </defs>
    <g id="Page-1" stroke="none" stroke-width="1" fill="none" fill-rule="evenodd">
        <g id="Noticeboard" transform="translate(-703.000000, -1754.000000)">
            <g id="Group-43" transform="translate(635.000000, 1321.000000)">
                <g id="Group-17-Copy" transform="translate(68.000000, 433.000000)">
                    <g id="Group-3" transform="translate(0.000000, 0.339131)">
                        <mask id="mask-2" fill="white">
                            <use xlink:href="#path-1"></use>
                        </mask>
                        <g id="Clip-2"></g>
                        <path d="M20.3017752,9.5930568 C20.3017752,10.0625328 20.0655792,10.4591088 19.5990192,10.7857008 C19.1324592,11.1152088 18.5550912,11.2785048 17.8785792,11.2785048 C17.1991512,11.2785048 16.6363632,11.1152088 16.1931312,10.7857008 C15.7469832,10.4591088 15.5253672,10.0625328 15.5253672,9.5930568 C15.5253672,9.1235808 15.7469832,8.7270048 16.1931312,8.3974968 C16.6363632,8.0709048 17.1991512,7.9046928 17.8785792,7.9046928 C18.5550912,7.9046928 19.1324592,8.0709048 19.5990192,8.3974968 C20.0655792,8.7270048 20.3017752,9.1235808 20.3017752,9.5930568 L20.3017752,9.5930568 Z M29.0818512,19.6386768 L29.0818512,19.6386768 C28.9885392,21.4640928 27.9241992,22.9862448 25.8888312,24.2051328 C23.8505472,25.4240208 21.3077952,26.0567928 18.2634912,26.1005328 C15.6420072,26.0567928 13.3821072,25.5727368 11.4867072,24.6600288 C9.5883912,23.7473208 8.3345112,22.5430128 7.7279832,21.0441888 L7.3051632,20.9013048 L7.3051632,20.1285648 L7.0952112,20.0585808 C6.6257352,19.7786448 6.6257352,19.5220368 7.0952112,19.2858408 L7.3051632,19.1458728 L7.3051632,11.9812608 L13.7699352,13.8066768 C15.1725312,13.3867728 16.7063472,13.1855688 18.3684672,13.2118128 C20.0305872,13.2351408 21.5877312,13.4567568 23.0398992,13.8766608 L29.0818512,12.4011648 L29.0818512,19.6386768 Z M7.5151152,21.5340768 C7.1885232,21.5340768 6.9319152,21.4407648 6.7452912,21.2541408 C6.5557512,21.0675168 6.4624392,20.8109088 6.4624392,20.4814008 L6.4624392,15.7049928 C6.4624392,15.2821728 6.6257352,14.9555808 6.9552432,14.7193848 L17.3507832,8.6803488 C17.6307192,8.53757206 17.9019072,8.5024728 18.1585152,8.5724568 C18.4180392,8.6453568 18.6279912,8.8086528 18.7912872,9.0652608 C18.9545832,9.3247848 19.0012392,9.5930568 18.9312552,9.8729928 C18.8612712,10.1529288 18.6863112,10.3657968 18.4063752,10.5057648 L8.5707072,16.2677808 L8.5707072,20.4814008 C8.5707072,20.8109088 8.4657312,21.0675168 8.2557792,21.2541408 C8.0429112,21.4407648 7.7979672,21.5340768 7.5151152,21.5340768 L7.5151152,21.5340768 Z M7.5880152,22.0968648 C8.1012312,22.1901768 8.4044952,22.4963568 8.5007232,23.0124888 L8.8506432,26.9432568 C8.8972992,27.3194208 8.8039872,27.6460128 8.5707072,27.9288648 C8.3345112,28.2088008 8.0195832,28.3720968 7.6230072,28.4216688 C7.2235152,28.4654088 6.8823432,28.3720968 6.6024072,28.1388168 C6.3224712,27.9026208 6.1562592,27.5993568 6.1125192,27.2261088 L6.1125192,26.9432568 L6.5324232,23.0124888 C6.5324232,22.7296368 6.6373992,22.5080208 6.8502672,22.3447248 C7.0602192,22.1785128 7.3051632,22.0968648 7.5880152,22.0968648 L7.5880152,22.0968648 Z M7.5151152,23.5023768 C6.9085872,23.4557208 6.4157832,23.2457688 6.0396192,22.8696048 C5.6663712,22.4963568 5.4797472,22.0035528 5.4797472,21.3941088 L5.4797472,20.9013048 C5.4797472,20.3414328 5.6663712,19.8602928 6.0396192,19.4637168 C6.4157832,19.0671408 6.8940072,18.8659368 7.4830392,18.8659368 C8.0662392,18.8659368 8.5590432,19.0671408 8.9556192,19.4637168 C9.3551112,19.8602928 9.5533992,20.3414328 9.5533992,20.9013048 L9.5533992,21.3941088 C9.5533992,22.0035528 9.3551112,22.4963568 8.9556192,22.8696048 C8.5590432,23.2457688 8.0779032,23.4557208 7.5151152,23.5023768 L7.5151152,23.5023768 Z M16.5080592,19.9186128 L0.6304392,11.1385368 C0.2105352,10.9052568 0.0005832,10.6340688 0.0005832,10.3308048 C0.0005832,10.0246248 0.2105352,9.7796808 0.6304392,9.5930568 L16.5080592,0.7400808 C16.8842232,0.5068008 17.3391192,0.3901608 17.8785792,0.3901608 C18.4180392,0.3901608 18.8729352,0.5068008 19.2490992,0.7400808 L35.1937872,9.5930568 C35.5699512,9.7796808 35.7565752,10.0246248 35.7565752,10.3308048 C35.7565752,10.6340688 35.5699512,10.9052568 35.1937872,11.1385368 L19.2490992,19.9186128 C18.8729352,20.1548088 18.4180392,20.2714488 17.8785792,20.2714488 C17.3391192,20.2714488 16.8842232,20.1548088 16.5080592,19.9186128 L16.5080592,19.9186128 Z" id="Fill-1" mask="url(#mask-2)"></path>
                    </g>
                    <path d="M29.082726,19.9772244 L29.082726,19.9772244 C28.989414,21.8026404 27.925074,23.3247924 25.88679,24.5436804 C23.851422,25.7625684 21.30867,26.3953404 18.264366,26.4390804 C15.642882,26.3953404 13.382982,25.9142004 11.484666,25.0014924 C9.589266,24.0858684 8.335386,22.8815604 7.728858,21.3827364 L7.306038,21.2427684 L7.306038,20.4671124 L7.096086,20.4000444 C6.62661,20.1171924 6.62661,19.8605844 7.096086,19.6243884 L7.306038,19.4873364 L7.306038,12.3198084 L13.77081,14.1452244 C15.173406,13.7253204 16.707222,13.5270324 18.369342,13.5503604 C20.031462,13.5736884 21.588606,13.7953044 23.040774,14.2152084 L29.082726,12.7426284 L29.082726,19.9772244 Z" id="Fill-4" fill="#132028"></path>
                    <path d="M7.5871404,22.4362872 C8.1003564,22.5295992 8.4065364,22.8357792 8.4998484,23.3489952 L8.8526844,27.2826792 C8.8964244,27.6588432 8.8031124,27.9854352 8.5698324,28.2682872 C8.3365524,28.5482232 8.0187084,28.7115192 7.6221324,28.7581752 C7.2226404,28.8048312 6.8843844,28.7115192 6.6044484,28.4782392 C6.3215964,28.2420432 6.1583004,27.9387792 6.1116444,27.5655312 L6.1116444,27.2826792 L6.5344644,23.3489952 C6.5344644,23.0690592 6.6394404,22.8474432 6.8493924,22.6812312 C7.0593444,22.5179352 7.3072044,22.4362872 7.5871404,22.4362872" id="Fill-6" fill="#FFB636"></path>
                    <g id="Group-10" transform="translate(0.000000, 0.339131)">
                        <mask id="mask-4" fill="white">
                            <use xlink:href="#path-3"></use>
                        </mask>
                        <g id="Clip-9"></g>
                        <path d="M16.508934,19.9186128 L0.631314,11.1385368 C0.21141,10.9052568 -0.001458,10.6340688 -0.001458,10.3308048 C-0.001458,10.0246248 0.21141,9.7796808 0.631314,9.5930568 L16.508934,0.7400808 C16.882182,0.5068008 17.339994,0.3901608 17.879454,0.3901608 C18.415998,0.3901608 18.87381,0.5068008 19.247058,0.7400808 L35.194662,9.5930568 C35.570826,9.7796808 35.75745,10.0246248 35.75745,10.3308048 C35.75745,10.6340688 35.570826,10.9052568 35.194662,11.1385368 L19.247058,19.9186128 C18.87381,20.1548088 18.415998,20.2714488 17.879454,20.2714488 C17.339994,20.2714488 16.882182,20.1548088 16.508934,19.9186128" id="Fill-8" fill="#464A4C" mask="url(#mask-4)"></path>
                    </g>
                    <path d="M7.51599,23.8415076 C6.909462,23.7948516 6.416658,23.5848996 6.040494,23.2087356 C5.667246,22.8354876 5.480622,22.3426836 5.480622,21.7332396 L5.480622,21.2404356 C5.480622,20.6805636 5.667246,20.1994236 6.040494,19.8028476 C6.416658,19.4062716 6.894882,19.2050676 7.480998,19.2050676 C8.067114,19.2050676 8.557002,19.4062716 8.956494,19.8028476 C9.35307,20.1994236 9.554274,20.6805636 9.554274,21.2404356 L9.554274,21.7332396 C9.554274,22.3426836 9.35307,22.8354876 8.956494,23.2087356 C8.557002,23.5848996 8.078778,23.7948516 7.51599,23.8415076" id="Fill-11" fill="#FFD592"></path>
                    <path d="M7.51599,21.8737908 C7.189398,21.8737908 6.929874,21.7804788 6.74325,21.5938548 C6.556626,21.4072308 6.463314,21.1477068 6.463314,20.8211148 L6.463314,16.0417908 C6.463314,15.6218868 6.62661,15.2952948 6.956118,15.0590988 L17.351658,9.0171468 C17.631594,8.8771788 17.902782,8.8421868 18.15939,8.9121708 C18.415998,8.9850708 18.628866,9.1483668 18.792162,9.4049748 C18.955458,9.6644988 19.002114,9.9327708 18.93213,10.2127068 C18.862146,10.4926428 18.687186,10.7025948 18.404334,10.8454788 L8.571582,16.6045788 L8.571582,20.8211148 C8.571582,21.1477068 8.466606,21.4072308 8.253738,21.5938548 C8.043786,21.7804788 7.798842,21.8737908 7.51599,21.8737908" id="Fill-13" fill="#FFB636"></path>
                    <path d="M20.3017752,9.9321876 C20.3017752,10.4016636 20.0655792,10.7982396 19.5990192,11.1248316 C19.1324592,11.4543396 18.5550912,11.6176356 17.8785792,11.6176356 C17.1991512,11.6176356 16.6363632,11.4543396 16.1931312,11.1248316 C15.7469832,10.7982396 15.5253672,10.4016636 15.5253672,9.9321876 C15.5253672,9.4627116 15.7469832,9.0661356 16.1931312,8.7366276 C16.6363632,8.4100356 17.1991512,8.2438236 17.8785792,8.2438236 C18.5550912,8.2438236 19.1324592,8.4100356 19.5990192,8.7366276 C20.0655792,9.0661356 20.3017752,9.4627116 20.3017752,9.9321876" id="Fill-15" fill="#132028"></path>
                </g>
            </g>
        </g>
    </g>
</svg>