<?xml version="1.0" encoding="UTF-8"?>
<svg width="24px" height="25px" viewBox="0 0 24 25" version="1.1" xmlns="http://www.w3.org/2000/svg" xmlns:xlink="http://www.w3.org/1999/xlink">
    <title>Group 16 Copy</title>
    <defs>
        <polygon id="path-1" points="0 0.0143421053 23.712 0.0143421053 23.712 22.9998446 0 22.9998446"></polygon>
        <polygon id="path-3" points="0 0.973089816 19.3167403 0.973089816 19.3167403 18.6146778 0 18.6146778"></polygon>
        <polygon id="path-5" points="0.18002829 0.0143421053 7.712 0.0143421053 7.712 8.619 0.18002829 8.619"></polygon>
    </defs>
    <g id="Page-1" stroke="none" stroke-width="1" fill="none" fill-rule="evenodd" opacity="0.398577009">
        <g id="Noticeboard" transform="translate(-41.000000, -18.000000)">
            <g id="Group-16-Copy" transform="translate(41.000000, 18.000000)">
                <g id="Group-3" transform="translate(0.000000, 0.986200)">
                    <mask id="mask-2" fill="white">
                        <use xlink:href="#path-1"></use>
                    </mask>
                    <g id="Clip-2"></g>
                    <path d="M19.4184,8.087 L23.1264,6.545 C23.3204,6.515 23.4484,6.577 23.5124,6.739 L23.7064,7.895 C23.7364,8.087 23.6564,8.201 23.4644,8.231 L19.5624,8.619 C19.4004,8.619 19.3044,8.539 19.2724,8.377 C19.2404,8.249 19.2904,8.151 19.4184,8.087 M18.5984,5.775 C18.7264,5.937 18.8864,5.967 19.0804,5.871 L23.4644,3.557 C23.6564,3.431 23.6904,3.269 23.5604,3.077 L22.7424,1.823 C22.5804,1.663 22.4204,1.647 22.2604,1.777 L18.6464,5.341 C18.5484,5.469 18.5344,5.615 18.5984,5.775 M16.1904,3.847 L17.7804,0.187 C17.8764,0.025 18.0044,-0.023 18.1644,0.043 L19.1264,0.715 C19.2564,0.811 19.2724,0.941 19.1764,1.101 L16.6704,4.135 C16.5744,4.265 16.4604,4.281 16.3344,4.185 C16.2064,4.121 16.1564,4.009 16.1904,3.847 M13.1524,3.945 C12.1264,3.077 11.3544,2.773 10.8404,3.029 C10.3904,3.381 10.3684,4.203 10.7684,5.485 C11.1704,6.771 11.8604,8.143 12.8404,9.605 C13.8204,11.067 14.8164,12.231 15.8284,13.099 C16.8404,13.965 17.6024,14.271 18.1164,14.015 C18.5664,13.661 18.5904,12.843 18.1884,11.557 C17.7884,10.273 17.1044,8.891 16.1404,7.413 C15.1784,5.967 14.1824,4.811 13.1524,3.945 M9.1064,21.651 C9.1704,21.345 9.1064,21.047 8.9144,20.759 L6.5524,17.195 C6.3604,16.905 6.1024,16.729 5.7824,16.663 C5.4604,16.601 5.1544,16.663 4.8664,16.857 L4.2884,17.243 C3.9984,17.435 3.8224,17.685 3.7584,17.989 C3.6944,18.295 3.7584,18.591 3.9524,18.879 L6.3104,22.447 C6.5044,22.735 6.7624,22.911 7.0824,22.975 C7.4024,23.041 7.7104,22.975 7.9984,22.783 L8.5764,22.397 C8.8664,22.205 9.0424,21.957 9.1064,21.651 M3.5184,14.639 L5.5884,12.617 C5.7504,12.457 5.8384,12.255 5.8544,12.015 C5.8704,11.775 5.7904,11.565 5.6144,11.387 C5.4364,11.211 5.2264,11.117 4.9864,11.099 C4.7464,11.083 4.5304,11.171 4.3364,11.365 L2.2644,13.387 C2.0724,13.547 1.9744,13.749 1.9744,13.989 C1.9744,14.231 2.0624,14.441 2.2404,14.617 C2.4164,14.795 2.6324,14.881 2.8904,14.881 C3.1164,14.881 3.3244,14.801 3.5184,14.639 M18.8864,11.219 C19.3364,12.569 19.4344,13.597 19.1764,14.303 L19.2244,14.207 C19.1604,14.335 19.0804,14.449 18.9844,14.545 L18.8384,14.689 C18.7104,14.753 18.5824,14.801 18.4544,14.833 L18.3084,14.833 C17.0884,15.027 14.8564,15.709 11.6124,16.879 C8.3684,18.053 6.0544,18.929 4.6744,19.507 C4.4164,19.603 4.1584,19.635 3.9024,19.603 C3.5184,19.539 3.0184,19.363 2.4084,19.073 C1.7984,18.785 1.2604,18.287 0.7944,17.579 C0.3284,16.875 0.0724,16.191 0.0244,15.533 C-0.0256,14.875 0.0004,14.351 0.0964,13.965 C0.1604,13.711 0.2904,13.483 0.4804,13.293 C1.5724,12.231 3.2924,10.433 5.6364,7.895 C7.9804,5.359 9.4924,3.575 10.1664,2.545 L10.1664,2.499 C10.2304,2.339 10.3424,2.211 10.5044,2.113 C11.1144,1.761 12.0304,2.073 13.2504,3.051 C14.4704,4.033 15.6424,5.359 16.7684,7.029 C17.7304,8.473 18.4384,9.871 18.8864,11.219" id="Fill-1" fill="#000000" mask="url(#mask-2)"></path>
                </g>
                <path d="M8.5766,23.3838 L7.9986,23.7678 C7.7086,23.9618 7.4026,24.0258 7.0826,23.9618 C6.7626,23.8978 6.5046,23.7218 6.3106,23.4318 L3.9506,19.8658 C3.7586,19.5778 3.6946,19.2798 3.7586,18.9758 C3.8226,18.6718 3.9986,18.4218 4.2866,18.2298 L4.8666,17.8418 C5.1546,17.6498 5.4586,17.5878 5.7826,17.6498 C6.1026,17.7158 6.3606,17.8918 6.5526,18.1798 L8.9146,21.7458 C9.1066,22.0338 9.1706,22.3318 9.1066,22.6378 C9.0406,22.9418 8.8666,23.1898 8.5766,23.3838" id="Fill-4" fill="#F2A74E"></path>
                <g id="Group-8" transform="translate(0.000000, 1.986200)">
                    <mask id="mask-4" fill="white">
                        <use xlink:href="#path-3"></use>
                    </mask>
                    <g id="Clip-7"></g>
                    <path d="M18.8872,10.2198 C19.3372,11.5698 19.4332,12.5958 19.1772,13.3038 L19.2252,13.2058 C19.1612,13.3358 19.0812,13.4478 18.9852,13.5438 L18.8392,13.6878 C18.7112,13.7538 18.5832,13.8018 18.4532,13.8338 L18.3092,13.8338 C17.0892,14.0258 14.8552,14.7078 11.6112,15.8798 C8.3672,17.0538 6.0552,17.9278 4.6752,18.5078 C4.4172,18.6018 4.1592,18.6358 3.9032,18.6018 C3.5172,18.5378 3.0172,18.3618 2.4092,18.0738 C1.7992,17.7838 1.2612,17.2858 0.7952,16.5798 C0.3292,15.8738 0.0732,15.1898 0.0232,14.5318 C-0.0248,13.8738 0.0012,13.3498 0.0952,12.9658 C0.1612,12.7098 0.2892,12.4838 0.4812,12.2918 C1.5732,11.2318 3.2912,9.4318 5.6372,6.8958 C7.9812,4.3578 9.4932,2.5758 10.1672,1.5458 L10.1672,1.4998 C10.2312,1.3398 10.3432,1.2098 10.5052,1.1118 C11.1132,0.7618 12.0292,1.0738 13.2512,2.0518 C14.4712,3.0318 15.6432,4.3578 16.7672,6.0278 C17.7312,7.4738 18.4372,8.8698 18.8872,10.2198" id="Fill-6" fill="#FFB636" mask="url(#mask-4)"></path>
                </g>
                <path d="M16.1412,8.3994 C17.1032,9.8774 17.7872,11.2594 18.1872,12.5434 C18.5912,13.8294 18.5672,14.6474 18.1152,15.0014 C17.6012,15.2574 16.8412,14.9514 15.8292,14.0854 C14.8172,13.2174 13.8212,12.0534 12.8412,10.5914 C11.8592,9.1294 11.1712,7.7574 10.7672,6.4714 C10.3672,5.1894 10.3912,4.3674 10.8412,4.0154 C11.3532,3.7594 12.1252,4.0634 13.1532,4.9314 C14.1832,5.7974 15.1792,6.9534 16.1412,8.3994" id="Fill-9" fill="#CC883E"></path>
                <path d="M3.518,15.626 C3.324,15.788 3.116,15.868 2.892,15.868 C2.634,15.868 2.416,15.78 2.24,15.602 C2.062,15.426 1.976,15.218 1.976,14.976 C1.976,14.736 2.072,14.534 2.264,14.374 L4.336,12.35 C4.53,12.158 4.746,12.07 4.986,12.084 C5.226,12.102 5.436,12.198 5.614,12.374 C5.79,12.552 5.87,12.76 5.854,13.002 C5.838,13.242 5.75,13.442 5.588,13.602 L3.518,15.626 Z" id="Fill-11" fill="#FFD469"></path>
                <g id="Group-15" transform="translate(16.000000, 0.986200)">
                    <mask id="mask-6" fill="white">
                        <use xlink:href="#path-5"></use>
                    </mask>
                    <g id="Clip-14"></g>
                    <path d="M3.4184,8.087 L7.1264,6.545 C7.3204,6.515 7.4484,6.577 7.5124,6.739 L7.7064,7.895 C7.7364,8.087 7.6564,8.201 7.4644,8.231 L3.5624,8.619 C3.4004,8.619 3.3044,8.539 3.2724,8.377 C3.2404,8.249 3.2904,8.151 3.4184,8.087 M2.5984,5.775 C2.7264,5.937 2.8864,5.967 3.0804,5.871 L7.4644,3.557 C7.6564,3.431 7.6904,3.269 7.5604,3.077 L6.7424,1.823 C6.5804,1.663 6.4204,1.647 6.2604,1.777 L2.6464,5.341 C2.5484,5.469 2.5344,5.615 2.5984,5.775 M0.1904,3.847 L1.7804,0.187 C1.8764,0.025 2.0044,-0.023 2.1644,0.043 L3.1264,0.715 C3.2564,0.811 3.2724,0.941 3.1764,1.101 L0.6704,4.135 C0.5744,4.265 0.4604,4.281 0.3344,4.185 C0.2064,4.121 0.1564,4.009 0.1904,3.847" id="Fill-13" fill="#59CAFC" mask="url(#mask-6)"></path>
                </g>
            </g>
        </g>
    </g>
</svg>