<?xml version="1.0" encoding="UTF-8"?>
<svg width="21px" height="22px" viewBox="0 0 21 22" version="1.1" xmlns="http://www.w3.org/2000/svg" xmlns:xlink="http://www.w3.org/1999/xlink">
    <title>Group 11 Copy</title>
    <defs>
        <polygon id="path-1" points="0.0727056 0.49097664 18.3303648 0.49097664 18.3303648 18.7082628 0.0727056 18.7082628"></polygon>
    </defs>
    <g id="Page-1" stroke="none" stroke-width="1" fill="none" fill-rule="evenodd">
        <g id="Noticeboard" transform="translate(-192.000000, -18.000000)">
            <g id="Group-45" transform="translate(41.000000, 18.000000)">
                <g id="Group-11-Copy" transform="translate(151.000000, 0.000000)">
                    <g id="Group-3" transform="translate(0.000000, 0.031914)">
                        <path d="M10.273729,9.51588 C10.1351606,9.65444832 9.97093152,9.72287712 9.77933088,9.72287712 C9.58773024,9.72287712 9.4217904,9.65444832 9.2849328,9.51588 C9.14636448,9.3790224 9.0796464,9.22163616 9.0796464,9.04372128 C9.0796464,8.86409568 9.14636448,8.69302368 9.2849328,8.52708384 L12.0049776,5.84809632 C12.1418352,5.71123872 12.3009322,5.6410992 12.478847,5.6410992 C12.6584726,5.6410992 12.8141482,5.71123872 12.9527165,5.84809632 C13.0895741,5.98666464 13.1597136,6.14405088 13.1597136,6.32367648 C13.1597136,6.50159136 13.0895741,6.6589776 12.9527165,6.7958352 L10.273729,9.51588 Z M19.7938858,7.25088672 L13.2828854,0.73817568 C13.1186563,0.57223584 12.9185021,0.491832 12.6858442,0.491832 C12.4514755,0.491832 12.2376355,0.57223584 12.0460349,0.73817568 L11.7996912,1.02728736 C11.3583254,1.49431392 11.1393533,2.02976928 11.1393533,2.63536416 C11.1393533,3.23924832 11.3583254,3.77470368 11.7996912,4.24173024 C11.825352,4.29647328 11.825352,4.35121632 11.7996912,4.40595936 L8.3782512,7.78463136 C8.13190752,8.00531424 7.87016736,8.03268576 7.59474144,7.86845664 C6.96177504,7.45617312 6.28946208,7.27654752 5.57609184,7.33300128 C4.86101088,7.38774432 4.2297552,7.69054176 3.68061408,8.23968288 L2.32059168,9.55693728 C1.9630512,9.94356 1.7834256,10.3763722 1.7834256,10.8553738 C1.7834256,11.3360861 1.9630512,11.7688982 2.32059168,12.1538102 L8.3782512,18.1721232 C8.7631632,18.5296637 9.19597536,18.7075786 9.67668768,18.7075786 C10.1574,18.7075786 10.5902122,18.5296637 10.9751242,18.1721232 L12.2940893,16.8531581 C12.8141482,16.304017 13.1101027,15.6727613 13.1802422,14.9576803 C13.248671,14.2425994 13.0758883,13.5685757 12.6636048,12.93732 C12.4720042,12.6636048 12.4856899,12.3881789 12.7046621,12.1144637 L16.1261021,8.73408096 C16.1808451,8.67933792 16.2355882,8.67933792 16.2920419,8.73408096 C16.7590685,9.173736 17.2945238,9.39270816 17.898408,9.39270816 C18.5022922,9.39270816 19.0394582,9.173736 19.5047741,8.73408096 L19.7938858,8.44496928 C19.9598256,8.27902944 20.0419402,8.08058592 20.0419402,7.84621728 C20.0419402,7.61527008 19.9598256,7.41340512 19.7938858,7.25088672 L19.7938858,7.25088672 Z M6.85228896,14.9149123 L6.8129424,14.9576803 L6.64700256,15.1629667 C6.48277344,15.3545674 6.2484048,15.588936 5.94731808,15.8626512 L5.49397728,16.2749347 L3.18450528,18.295295 L0.4661712,20.4781738 C0.32760288,20.561999 0.20443104,20.5397597 0.09494496,20.4165878 C-0.01625184,20.293416 -0.02822688,20.1634013 0.05217696,20.0265437 L0.876744,18.9949795 L3.76272864,15.5752502 L4.66941024,14.5436861 C4.94312544,14.2699709 5.16380832,14.049288 5.32803744,13.8850589 L5.61714912,13.6370045 C5.80874976,13.5001469 6.02258976,13.438561 6.25524768,13.4522467 C6.48961632,13.4676432 6.68121696,13.5617328 6.83347104,13.7413584 C6.9840144,13.9192733 7.05928608,14.1125846 7.05928608,14.317871 C7.05928608,14.5248682 6.99085728,14.7233117 6.85228896,14.9149123 L6.85228896,14.9149123 Z" id="Fill-1"></path>
                    </g>
                    <path d="M6.85314432,14.9471689 L6.81208704,14.9882262 L6.64785792,15.1952233 C6.48191808,15.3868239 6.24754944,15.6211926 5.94646272,15.8949078 L5.49312192,16.3071913 L3.18536064,18.3275516 L0.46531584,20.5104303 C0.32845824,20.5942556 0.20357568,20.5720163 0.0940896,20.4488444 C-0.01539648,20.3256726 -0.02908224,20.1939471 0.05303232,20.0570895 L0.87759936,19.0272361 L3.76187328,15.6075068 L4.66855488,14.5759427 C4.9439808,14.3022275 5.16295296,14.0815446 5.3288928,13.9156047 L5.61629376,13.6692611 C5.80960512,13.5324035 6.0217344,13.4708175 6.25610304,13.4845033 C6.48876096,13.4981891 6.6803616,13.5939894 6.83261568,13.7719043 C6.98315904,13.9515299 7.06014144,14.1431305 7.06014144,14.3484169 C7.06014144,14.555414 6.99000192,14.7555683 6.85314432,14.9471689" id="Fill-4" fill="#96A9B2"></path>
                    <g id="Group-8" transform="translate(1.710720, 0.031914)">
                        <mask id="mask-2" fill="white">
                            <use xlink:href="#path-1"></use>
                        </mask>
                        <g id="Clip-7"></g>
                        <path d="M18.3312202,7.84690157 C18.3312202,8.08127021 18.2491056,8.27971373 18.0831658,8.44565357 L17.7957648,8.73476525 C17.3287382,9.17270957 16.7915722,9.39168173 16.187688,9.39168173 C15.5838038,9.39168173 15.0483485,9.17270957 14.5813219,8.73476525 C14.5248682,8.67831149 14.4701251,8.67831149 14.4153821,8.73476525 L10.9939421,12.1134372 C10.7749699,12.3871524 10.7612842,12.6625784 10.9545955,12.9380043 C11.3651683,13.56926 11.537951,14.2415729 11.4695222,14.9566539 C11.3993827,15.6717348 11.1034282,16.3029905 10.5833693,16.8538424 L9.26440416,18.1710968 C8.87949216,18.5286372 8.44668,18.7082628 7.96596768,18.7082628 C7.48525536,18.7082628 7.0524432,18.5286372 6.6675312,18.1710968 L0.60987168,12.1544945 C0.2523312,11.7695825 0.0727056,11.3367704 0.0727056,10.856058 C0.0727056,10.3770564 0.2523312,9.94424429 0.60987168,9.55762157 L1.96989408,8.23865645 C2.5190352,7.68951533 3.15029088,7.38671789 3.86537184,7.33197485 C4.57874208,7.27723181 5.25105504,7.45514669 5.88402144,7.86914093 C6.15944736,8.03165933 6.42118752,8.00599853 6.6675312,7.78531565 L10.0889712,4.40493293 C10.114632,4.35190061 10.114632,4.29715757 10.0889712,4.24241453 C9.64760544,3.77367725 9.42863328,3.23993261 9.42863328,2.63433773 C9.42863328,2.03045357 9.64760544,1.49328749 10.0889712,1.02797165 L10.3353149,0.738859968 C10.5269155,0.572920128 10.7407555,0.490805568 10.9751242,0.490805568 C11.2077821,0.490805568 11.4079363,0.572920128 11.5721654,0.738859968 L18.0831658,7.24986029 C18.2491056,7.41408941 18.3312202,7.61424365 18.3312202,7.84690157" id="Fill-6" fill="#FF473E" mask="url(#mask-2)"></path>
                    </g>
                    <path d="M10.273729,9.54779443 C10.1351606,9.68636275 9.97093152,9.75479155 9.77933088,9.75479155 C9.58773024,9.75479155 9.4217904,9.68636275 9.2849328,9.54779443 C9.14636448,9.41093683 9.0796464,9.25355059 9.0796464,9.07563571 C9.0796464,8.89601011 9.14636448,8.72493811 9.2849328,8.55899827 L12.0049776,5.88001075 C12.1418352,5.74315315 12.3009322,5.67301363 12.478847,5.67301363 C12.6584726,5.67301363 12.8141482,5.74315315 12.9527165,5.88001075 C13.0895741,6.01857907 13.1597136,6.17596531 13.1597136,6.35559091 C13.1597136,6.53350579 13.0895741,6.69089203 12.9527165,6.82774963 L10.273729,9.54779443 Z" id="Fill-9" fill="#FF6E83"></path>
                </g>
            </g>
        </g>
    </g>
</svg>