<?xml version="1.0" encoding="UTF-8"?>
<svg width="29px" height="33px" viewBox="0 0 29 33" version="1.1" xmlns="http://www.w3.org/2000/svg" xmlns:xlink="http://www.w3.org/1999/xlink">
    <title>Group 16</title>
    <defs>
        <polygon id="path-1" points="0.000261818182 0.070875 28.4465455 0.070875 28.4465455 31.4992125 0.000261818182 31.4992125"></polygon>
        <polygon id="path-3" points="0.000261818182 0.09854 28.4465455 0.09854 28.4465455 23.39974 0.000261818182 23.39974"></polygon>
        <polygon id="path-5" points="0.519135652 0.09802 14.9407826 0.09802 14.9407826 23.39922 0.519135652 23.39922"></polygon>
    </defs>
    <g id="Page-1" stroke="none" stroke-width="1" fill="none" fill-rule="evenodd">
        <g id="Noticeboard" transform="translate(-707.000000, -1583.000000)">
            <g id="Group-43" transform="translate(635.000000, 1321.000000)">
                <g id="Group-16" transform="translate(72.000000, 262.000000)">
                    <g id="Group-3">
                        <mask id="mask-2" fill="white">
                            <use xlink:href="#path-1"></use>
                        </mask>
                        <g id="Clip-2"></g>
                        <path d="M28.4468073,7.9739625 L28.4468073,23.5953375 C28.4468073,23.8473375 28.3001891,24.0599625 28.0069527,24.2253375 L15.3899345,31.2472125 C15.0548073,31.4152125 14.6751709,31.4992125 14.2562618,31.4992125 L14.3190982,19.7365875 C14.3609891,15.8148375 14.3400436,11.8957125 14.2562618,7.9739625 L28.4468073,7.9739625 Z M18.4165527,6.9003375 C19.0082618,7.2389625 19.3014982,7.6799625 19.3014982,8.2285875 C19.3014982,8.7772125 19.0265891,9.2077125 18.4820073,9.5253375 C17.9348073,9.8403375 17.2200436,9.9978375 16.3377164,9.9978375 C15.6229527,9.9978375 15.0129164,9.8928375 14.5076073,9.6802125 C14.3400436,9.6408375 14.1934255,9.6408375 14.0651345,9.6802125 C13.5598255,9.9794625 12.87648,10.1133375 12.0150982,10.0949625 C11.1537164,10.0739625 10.4494255,9.9033375 9.90222545,9.5857125 C9.35502545,9.2707125 9.08273455,8.8507125 9.08273455,8.3230875 C9.08273455,7.7980875 9.37597091,7.3649625 9.96506182,7.0263375 C10.1745164,6.8583375 10.2373527,6.6457125 10.1561891,6.3937125 C9.73466182,5.5510875 9.75560727,4.8764625 10.2190255,4.3698375 C10.4703709,4.1152125 10.8081164,3.9892125 11.2270255,3.9892125 C11.4809891,3.9892125 11.75328,4.0443375 12.0465164,4.1493375 C12.3423709,4.2543375 12.5518255,4.1808375 12.6801164,3.9262125 C13.0126255,3.1255875 13.4996073,2.7265875 14.1279709,2.7265875 C14.7589527,2.7265875 15.2433164,3.1072125 15.5784436,3.8658375 C15.7460073,4.1152125 15.9790255,4.1913375 16.27488,4.0863375 C16.5681164,3.9813375 16.8613527,3.9262125 17.1572073,3.9262125 C17.6180073,3.9708375 17.9348073,4.0942125 18.1023709,4.3094625 C18.5657891,4.8134625 18.60768,5.4880875 18.2280436,6.3307125 C18.1442618,6.5853375 18.2070982,6.7743375 18.4165527,6.9003375 L18.4165527,6.9003375 Z M24.6635345,11.7067125 C24.6635345,11.2867125 24.5142982,10.9270875 24.2210618,10.6304625 C24.1791709,10.5464625 24.1163345,10.4834625 24.0325527,10.4414625 L9.08273455,2.4089625 C8.95706182,2.3275875 8.83138909,2.3275875 8.70309818,2.4089625 L6.05611636,3.8658375 C5.92782545,3.9498375 5.86498909,4.0758375 5.86498909,4.2438375 C5.86498909,4.4144625 5.92782545,4.5378375 6.05611636,4.6244625 L21.3201164,12.7199625 L21.3201164,27.7690875 C21.3201164,27.9344625 21.3593891,28.0525875 21.4457891,28.1182125 C21.5295709,28.1785875 21.6133527,28.2127125 21.6971345,28.2127125 C21.7809164,28.2127125 21.8463709,28.1890875 21.8882618,28.1497125 L24.4095709,26.7558375 C24.5771345,26.6718375 24.6635345,26.5458375 24.6635345,26.3778375 L24.6635345,11.7067125 Z M22.6449164,3.8658375 C22.7705891,3.9498375 22.8334255,4.0758375 22.8334255,4.2438375 C22.8334255,4.4144625 22.7705891,4.5378375 22.6449164,4.6244625 L7.38091636,12.7199625 L7.38091636,27.7690875 C7.38091636,27.9344625 7.33640727,28.0525875 7.25262545,28.1182125 C7.16884364,28.1785875 7.08506182,28.2127125 7.00128,28.2127125 C6.91749818,28.2127125 6.85204364,28.1890875 6.81277091,28.1497125 L4.28884364,26.7558375 C4.12128,26.6718375 4.03749818,26.5458375 4.03749818,26.3778375 L4.03749818,11.7067125 C4.03749818,11.2867125 4.18411636,10.9270875 4.47735273,10.6304625 L4.79415273,10.3154625 L19.61568,2.4089625 C19.7413527,2.3275875 19.8696436,2.3275875 19.9953164,2.4089625 L22.6449164,3.8658375 Z M13.1828073,15.5654625 L0.568407273,8.5435875 C0.272552727,8.3755875 0.125934545,8.1760875 0.125934545,7.9424625 C0.125934545,7.7114625 0.272552727,7.5119625 0.568407273,7.3439625 L13.1828073,0.3220875 C13.5179345,0.1540875 13.8870982,0.0700875 14.28768,0.0700875 C14.6856436,0.0700875 15.0548073,0.1540875 15.3899345,0.3220875 L28.0069527,7.3439625 C28.3001891,7.5119625 28.4468073,7.7114625 28.4468073,7.9424625 C28.4468073,8.1760875 28.3001891,8.3755875 28.0069527,8.5435875 L15.3899345,15.5654625 C15.0548073,15.7334625 14.6856436,15.8148375 14.28768,15.8148375 C13.8870982,15.8148375 13.5179345,15.7334625 13.1828073,15.5654625 L13.1828073,15.5654625 Z M28.4468073,23.5953375 C28.4468073,23.8473375 28.3001891,24.0599625 28.0069527,24.2253375 L15.3899345,31.2472125 C15.0548073,31.4152125 14.6856436,31.4992125 14.28768,31.4992125 C13.8870982,31.4992125 13.5179345,31.4152125 13.1828073,31.2472125 L0.568407273,24.2253375 C0.272552727,24.0599625 0.125934545,23.8473375 0.125934545,23.5953375 L0.000261818182,23.5953375 L0.000261818182,7.9739625 L28.4468073,7.9739625 L28.4468073,23.5953375 Z" id="Fill-1" mask="url(#mask-2)"></path>
                    </g>
                    <g id="Group-6" transform="translate(0.000000, 8.100000)">
                        <mask id="mask-4" fill="white">
                            <use xlink:href="#path-3"></use>
                        </mask>
                        <g id="Clip-5"></g>
                        <path d="M28.4468073,15.57114 C28.4468073,15.82074 28.3001891,16.03134 28.0069527,16.19514 L15.3899345,23.15014 C15.0548073,23.31654 14.6856436,23.39974 14.28768,23.39974 C13.8870982,23.39974 13.5179345,23.31654 13.1828073,23.15014 L0.568407273,16.19514 C0.272552727,16.03134 0.125934545,15.82074 0.125934545,15.57114 L0.000261818182,15.57114 L0.000261818182,0.09854 L28.4468073,0.09854 L28.4468073,15.57114 Z" id="Fill-4" fill="#FF473E" mask="url(#mask-4)"></path>
                    </g>
                    <g id="Group-9" transform="translate(13.500000, 8.100000)">
                        <mask id="mask-6" fill="white">
                            <use xlink:href="#path-5"></use>
                        </mask>
                        <g id="Clip-8"></g>
                        <path d="M14.9410487,0.09802 L14.9410487,15.57062 C14.9410487,15.82022 14.79204,16.03082 14.4940226,16.19462 L1.67129217,23.14962 C1.33070087,23.31602 0.944874783,23.39922 0.519135652,23.39922 L0.582996522,11.74862 C0.625570435,7.86422 0.604283478,3.98242 0.519135652,0.09802 L14.9410487,0.09802 Z" id="Fill-7" fill="#FF6E83" mask="url(#mask-6)"></path>
                    </g>
                    <path d="M12.8628363,15.9407136 L0.435897199,8.71580527 C0.144439308,8.54564855 0,8.34038013 0,8.1 C0,7.86232077 0.144439308,7.65705235 0.435897199,7.48149383 L12.8628363,0.256585529 C13.1929833,0.0864288096 13.5566608,0 13.9512896,0 C14.3433392,0 14.7070167,0.0864288096 15.0371637,0.256585529 L27.4666821,7.48149383 C27.7555607,7.65705235 27.9,7.86232077 27.9,8.1 C27.9,8.34038013 27.7555607,8.54564855 27.4666821,8.71580527 L15.0371637,15.9407136 C14.7070167,16.1135712 14.3433392,16.2 13.9512896,16.2 C13.5566608,16.2 13.1929833,16.1135712 12.8628363,15.9407136" id="Fill-10" fill="#FFA9BA"></path>
                    <path d="M24.3,11.2438916 C24.3,10.8200721 24.1502285,10.4571766 23.8585682,10.157854 C23.8138995,10.075739 23.7508378,10.0095172 23.6667555,9.96978408 L8.66332826,1.86158628 C8.53720487,1.77947124 8.41108149,1.77947124 8.28495811,1.86158628 L5.62585682,3.33171035 C5.49973343,3.41647426 5.43667174,3.54362013 5.43667174,3.71314795 C5.43667174,3.88532464 5.49973343,4.0124705 5.62585682,4.09723442 L20.9445925,12.2663563 L20.9445925,27.4523406 C20.9445925,27.6218684 20.9866337,27.7410677 21.0707159,27.8046406 C21.1547982,27.8655647 21.2388804,27.9 21.3255903,27.9 C21.4070449,27.9 21.4727342,27.8761602 21.5147753,27.8364271 L24.0477532,26.4298759 C24.2159177,26.345112 24.3,26.2179662 24.3,26.0484383 L24.3,11.2438916 Z M22.2741432,3.33171035 C22.4002666,3.41647426 22.4633283,3.54362013 22.4633283,3.71314795 C22.4633283,3.88532464 22.4002666,4.0124705 22.2741432,4.09723442 L6.95540746,12.2663563 L6.95540746,27.4523406 C6.95540746,27.6218684 6.91336634,27.7410677 6.82928408,27.8046406 C6.74257426,27.8655647 6.66111957,27.9 6.57440975,27.9 C6.49032749,27.9 6.4272658,27.8761602 6.38522468,27.8364271 L3.85224676,26.4298759 C3.68408225,26.345112 3.6,26.2179662 3.6,26.0484383 L3.6,11.2438916 C3.6,10.8200721 3.74714395,10.4571766 4.04405941,10.157854 L4.35936786,9.83998934 L19.2366717,1.86158628 C19.3627951,1.77947124 19.4889185,1.77947124 19.6150419,1.86158628 L22.2741432,3.33171035 Z" id="Fill-12" fill="#FFD4DE"></path>
                    <path d="M18.0449769,6.77721391 C18.615838,7.10800673 18.9,7.53880669 18.9,8.07474236 C18.9,8.61067802 18.6361353,9.03122084 18.1058688,9.34149938 C17.5756023,9.64921364 16.8829575,9.80563505 16.0279344,9.80563505 C15.3352896,9.80563505 14.7441312,9.70306363 14.2544593,9.49535651 C14.092081,9.45432794 13.95,9.45432794 13.8282163,9.49535651 C13.3385443,9.78512077 12.6763455,9.91846361 11.8416197,9.89794933 C11.0068939,9.87743505 10.3243977,9.71332078 9.79413121,9.40047795 C9.26386468,9.09276369 9,8.68247802 9,8.16705663 C9,7.65419954 9.28416197,7.23109244 9.85502307,6.90029961 C10.0579959,6.73618534 10.1188877,6.52847822 10.0376986,6.2848711 C9.63175295,5.45917117 9.64951307,4.8001498 10.0985905,4.30524271 C10.344695,4.05650702 10.6694516,3.9359856 11.0779344,3.9359856 C11.3215018,3.9359856 11.5879036,3.98727131 11.8720656,4.08984273 C12.1562276,4.19241415 12.3617376,4.12061415 12.4835213,3.87187846 C12.8082778,3.09233568 13.2776525,2.7 13.8891081,2.7 C14.5005638,2.7 14.9674013,3.07182139 15.294695,3.8128999 C15.4570733,4.05650702 15.6803434,4.1308713 15.9670425,4.02829988 C16.2512045,3.92572846 16.5379036,3.87187846 16.8220656,3.87187846 C17.271143,3.91547132 17.5756023,4.03855702 17.7405177,4.24626414 C18.1870579,4.73860695 18.2276525,5.39762832 17.8623014,6.22076396 C17.7811123,6.46949965 17.8394669,6.6541282 18.0449769,6.77721391" id="Fill-14" fill="#FF6E83"></path>
                </g>
            </g>
        </g>
    </g>
</svg>