<?xml version="1.0" encoding="UTF-8"?>
<svg width="33px" height="33px" viewBox="0 0 33 33" version="1.1" xmlns="http://www.w3.org/2000/svg" xmlns:xlink="http://www.w3.org/1999/xlink">
    <title>Group 7</title>
    <defs>
        <circle id="path-1" cx="16.5" cy="16.5" r="16.5"></circle>
        <polygon id="path-3" points="0 0.37989 36.3578544 0.37989 36.3578544 33.453 0 33.453"></polygon>
        <polygon id="path-5" points="0.0001134 0.3801168 34.7163894 0.3801168 34.7163894 33.453 0.0001134 33.453"></polygon>
        <polygon id="path-7" points="0.5566806 0.4279716 30.1211946 0.4279716 30.1211946 28.35 0.5566806 28.35"></polygon>
        <polygon id="path-9" points="0 0.000567 31.1225166 0.000567 31.1225166 13.1627916 0 13.1627916"></polygon>
    </defs>
    <g id="Page-1" stroke="none" stroke-width="1" fill="none" fill-rule="evenodd">
        <g id="Noticeboard" transform="translate(-705.000000, -1663.000000)">
            <g id="Group-43" transform="translate(635.000000, 1321.000000)">
                <g id="Group-7" transform="translate(70.000000, 342.000000)">
                    <g id="Group-18">
                        <mask id="mask-2" fill="white">
                            <use xlink:href="#path-1"></use>
                        </mask>
                        <use id="Mask" fill="#D8D8D8" xlink:href="#path-1"></use>
                        <g mask="url(#mask-2)">
                            <g transform="translate(-2.000000, -1.000000)">
                                <g id="Group-3" stroke-width="1" fill="none" transform="translate(0.000000, 0.187223)">
                                    <mask id="mask-4" fill="white">
                                        <use xlink:href="#path-3"></use>
                                    </mask>
                                    <g id="Clip-2"></g>
                                    <path d="M26.4285504,11.205054 C25.9307244,11.205054 25.5077424,11.37969 25.1596044,11.727828 C24.8103324,12.0771 24.6368304,12.500082 24.6368304,12.996774 L24.6368304,17.028144 C24.6368304,17.476074 24.7978584,17.638236 25.1221824,17.513496 C25.4453724,17.38989 25.8808284,17.302572 26.4285504,17.252676 C26.9252424,17.302572 27.3493584,17.38989 27.6986304,17.513496 C28.0456344,17.638236 28.2202704,17.476074 28.2202704,17.028144 L28.2202704,12.996774 C28.2202704,12.500082 28.0456344,12.0771 27.6986304,11.727828 C27.3493584,11.37969 26.9252424,11.205054 26.4285504,11.205054 M25.0110504,17.998848 C25.9556724,17.550918 26.9014284,17.527104 27.8471844,17.924004 C28.1465604,18.073692 28.3699584,17.987508 28.5196464,17.663184 C28.6682004,17.339994 28.5933564,17.102988 28.2951144,16.9533 C27.0499824,16.356816 25.7810364,16.356816 24.4882764,16.9533 C24.1889004,17.152884 24.1140564,17.427312 24.2637444,17.774316 C24.3624024,17.9739 24.5370384,18.073692 24.7865184,18.073692 C24.8851764,18.073692 24.9600204,18.049878 25.0110504,17.998848 M22.9947984,27.928152 C21.4514244,28.625562 19.8831024,28.9737 18.2909664,28.9737 L18.1412784,28.9737 C16.5480084,28.9737 14.9558724,28.625562 13.3637364,27.928152 C14.0600124,27.480222 14.8197924,27.256824 15.6408084,27.256824 C16.4618244,27.256824 17.3202624,27.331668 18.2161224,27.480222 C19.0620864,27.331668 19.8967104,27.256824 20.7177264,27.256824 C21.5387424,27.256824 22.2962544,27.480222 22.9947984,27.928152 M8.9592804,21.731976 L8.1382644,21.582288 L9.7802964,21.433734 L12.6175644,21.35889 C14.4580464,21.310128 16.3132704,21.284046 18.1787004,21.284046 C20.0452644,21.284046 21.9231684,21.310128 23.8158144,21.35889 L26.5782384,21.433734 L28.2202704,21.582288 L27.3992544,21.731976 C26.8515324,21.881664 26.0928864,22.006404 25.1221824,22.105062 C24.1514784,22.205988 23.0696424,22.304646 21.8744064,22.403304 C20.6803044,22.50423 19.4487804,22.541652 18.1787004,22.51557 C16.9097544,22.491756 15.6782304,22.440726 14.4829944,22.365882 C13.2888924,22.292172 12.2183964,22.205988 11.2737744,22.105062 C10.3268844,21.955374 9.5568984,21.831768 8.9592804,21.731976 M10.0048284,11.205054 C9.4559724,11.205054 9.0205164,11.37969 8.6973264,11.727828 C8.3730024,12.0771 8.1870264,12.500082 8.1382644,12.996774 L8.1382644,17.028144 C8.1870264,17.476074 8.3730024,17.638236 8.6973264,17.513496 C9.0205164,17.38989 9.4559724,17.302572 10.0048284,17.252676 C10.5015204,17.302572 10.9245024,17.38989 11.2737744,17.513496 C11.6207784,17.638236 11.7954144,17.476074 11.7954144,17.028144 L11.7954144,12.996774 C11.7954144,12.500082 11.6207784,12.0771 11.2737744,11.727828 C10.9245024,11.37969 10.5015204,11.205054 10.0048284,11.205054 M8.5861944,17.998848 C9.5308164,17.550918 10.4527584,17.527104 11.3474844,17.924004 C11.6956224,18.073692 11.9451024,17.987508 12.0947904,17.663184 C12.2433444,17.339994 12.1696344,17.102988 11.8702584,16.9533 C10.6262604,16.356816 9.3561804,16.356816 8.0634204,16.9533 C7.7651784,17.152884 7.6903344,17.427312 7.8388884,17.774316 C7.9386804,17.9739 8.1121824,18.073692 8.3616624,18.073692 C8.4104244,18.073692 8.4852684,18.049878 8.5861944,17.998848 M35.9099244,18.29709 C36.2093004,18.646362 36.3578544,19.081818 36.3578544,19.604592 C36.3578544,20.126232 36.1718784,20.575296 35.7987924,20.948382 C35.4245724,21.321468 34.9641684,21.507444 34.4164464,21.507444 L34.0433604,21.507444 C32.9490504,25.042122 30.9826944,27.89073 28.1465604,30.05667 C25.3092924,32.221476 21.9980124,33.353208 18.2161224,33.453 C15.9764724,33.403104 13.8865104,32.980122 11.9451024,32.184054 C10.0048284,31.386852 8.2868184,30.293676 6.7944744,28.898856 C9.4310244,30.490992 12.3930324,31.312008 15.6782304,31.363038 C20.5045344,31.262112 24.5120904,29.621214 27.6986304,26.435808 C30.8829024,23.250402 32.5510164,19.24398 32.6995704,14.415408 C32.6496744,11.131344 31.8037104,8.169336 30.1616784,5.531652 C31.5542304,7.023996 32.6632824,8.742006 33.4842984,10.68228 C34.3053144,12.623688 34.7158224,14.689836 34.7158224,16.87959 L34.7158224,17.625762 C35.2125144,17.725554 35.6116824,17.950086 35.9099244,18.29709 M29.6389044,21.955374 L29.5640604,22.105062 L29.4155064,22.403304 C28.9165464,23.101848 28.4323284,23.709672 27.9594504,24.232446 C27.4854384,24.75522 27.0261684,25.215624 26.5782384,25.614792 C25.6324824,26.460756 24.7116744,27.107136 23.8158144,27.555066 L22.9947984,27.928152 C22.2962544,27.480222 21.5500824,27.406512 20.7551484,27.704754 C19.9579464,28.002996 19.1119824,28.20258 18.2161224,28.302372 C17.3202624,28.20258 16.4618244,28.002996 15.6408084,27.704754 C14.8197924,27.406512 14.0600124,27.480222 13.3637364,27.928152 L12.6175644,27.555066 C11.6706744,27.05724 10.7249184,26.41086 9.7802964,25.614792 C9.3323664,25.215624 8.8719624,24.75522 8.3990844,24.232446 C7.9250724,23.709672 7.4658024,23.101848 7.0178724,22.403304 L6.7944744,22.105062 C6.6935484,21.955374 6.7196304,21.831768 6.8681844,21.731976 L7.0178724,21.657132 L8.1382644,21.582288 L8.9592804,21.731976 C9.5568984,21.831768 10.3268844,21.944034 11.2737744,22.06764 C12.2183964,22.19238 13.2888924,22.292172 14.4829944,22.365882 C15.6782304,22.440726 16.9097544,22.491756 18.1787004,22.51557 C19.4487804,22.541652 20.6803044,22.50423 21.8744064,22.403304 C23.0696424,22.304646 24.1514784,22.205988 25.1221824,22.105062 C26.0928864,22.006404 26.8515324,21.881664 27.3992544,21.731976 L28.2202704,21.582288 C28.6183044,21.582288 29.0163384,21.60837 29.4155064,21.657132 C29.5640604,21.707028 29.6389044,21.80682 29.6389044,21.955374 M29.9008584,5.194854 C33.0102864,8.30655 34.6148964,12.20184 34.7158224,16.87959 C34.6148964,21.55734 33.0102864,25.45263 29.9008584,28.563192 C26.7891624,31.67262 22.8938724,33.303312 18.2161224,33.453 C14.3832024,33.353208 11.0492424,32.221476 8.2131084,30.05667 C5.3758404,27.89073 3.4083504,25.06707 2.3140404,21.582288 L1.9409544,21.582288 C1.3932324,21.533526 0.9339624,21.321468 0.5597424,20.948382 C0.1866564,20.575296 -0.0004536,20.126232 -0.0004536,19.604592 C-0.0004536,19.081818 0.1605744,18.646362 0.4860324,18.29709 C0.8080884,17.950086 1.2197304,17.725554 1.7164224,17.625762 L1.6427124,16.87959 C1.7912664,12.20184 3.4208244,8.30655 6.5325204,5.194854 C9.6430824,2.085426 13.5372384,0.479682 18.2161224,0.37989 C22.8938724,0.479682 26.7891624,2.085426 29.9008584,5.194854" id="Fill-1" mask="url(#mask-4)"></path>
                                </g>
                                <g id="Group-6" stroke-width="1" fill="none" transform="translate(0.000000, 0.187223)">
                                    <mask id="mask-6" fill="white">
                                        <use xlink:href="#path-5"></use>
                                    </mask>
                                    <g id="Clip-5"></g>
                                    <path d="M29.9002914,5.1950808 C33.0108534,8.3067768 34.6154634,12.2020668 34.7163894,16.8798168 C34.6154634,21.5575668 33.0108534,25.4528568 29.9002914,28.5622848 C26.7885954,31.6728468 22.8944394,33.3035388 18.2166894,33.4532268 C14.3826354,33.3534348 11.0486754,32.2217028 8.2125414,30.0557628 C5.3752734,27.8909568 3.4089174,25.0661628 2.3146074,21.5825148 L1.9415214,21.5825148 C1.3926654,21.5337528 0.9333954,21.3216948 0.5591754,20.9486088 C0.1860894,20.5755228 0.0001134,20.1264588 0.0001134,19.6048188 C0.0001134,19.0820448 0.1611414,18.6465888 0.4854654,18.2973168 C0.8086554,17.9503128 1.2191634,17.7257808 1.7169894,17.6259888 L1.6421454,16.8798168 C1.7918334,12.2020668 3.4213914,8.3067768 6.5330874,5.1950808 C9.6425154,2.0856528 13.5378054,0.4799088 18.2166894,0.3801168 C22.8944394,0.4799088 26.7885954,2.0856528 29.9002914,5.1950808" id="Fill-4" fill="#FFD469" mask="url(#mask-6)"></path>
                                </g>
                                <g id="Group-9" stroke-width="1" fill="none" transform="translate(6.237000, 5.290223)">
                                    <mask id="mask-8" fill="white">
                                        <use xlink:href="#path-7"></use>
                                    </mask>
                                    <g id="Clip-8"></g>
                                    <path d="M29.6732646,13.1945436 C29.9715066,13.5438156 30.1211946,13.9781376 30.1211946,14.5009116 C30.1211946,15.0236856 29.9340846,15.4716156 29.5609986,15.8447016 C29.1879126,16.2189216 28.7275086,16.4048976 28.1797866,16.4048976 L27.8067006,16.4048976 C26.7112566,19.9395756 24.7460346,22.7881836 21.9087666,24.9529896 C19.0714986,27.1177956 15.7613526,28.2495276 11.9794626,28.3504536 C9.7398126,28.2994236 7.6498506,27.8764416 5.7084426,27.0815076 C3.7670346,26.2843056 2.0501586,25.1899956 0.5566806,23.7963096 C3.1943646,25.3884456 6.1563726,26.2094616 9.4415706,26.2593576 C14.2678746,26.1595656 18.2754306,24.5175336 21.4608366,21.3321276 C24.6451086,18.1478556 26.3143566,14.1402996 26.4629106,9.3128616 C26.4130146,6.0276636 25.5670506,3.0667896 23.9250186,0.4279716 C25.3175706,1.9214496 26.4254886,3.6383256 27.2465046,5.5797336 C28.0675206,7.5211416 28.4791626,9.5861556 28.4791626,11.7770436 L28.4791626,12.5232156 C28.9758546,12.6230076 29.3750226,12.8475396 29.6732646,13.1945436" id="Fill-7" fill="#FFB636" mask="url(#mask-8)"></path>
                                </g>
                                <path d="M26.4285504,11.3922774 C25.9307244,11.3922774 25.5077424,11.5669134 25.1596044,11.9150514 C24.8103324,12.2643234 24.6368304,12.6873054 24.6368304,13.1839974 L24.6368304,17.2153674 C24.6368304,17.6632974 24.7978584,17.8254594 25.1221824,17.7007194 C25.4453724,17.5771134 25.8808284,17.4897954 26.4285504,17.4398994 C26.9252424,17.4897954 27.3493584,17.5771134 27.6986304,17.7007194 C28.0456344,17.8254594 28.2202704,17.6632974 28.2202704,17.2153674 L28.2202704,13.1839974 C28.2202704,12.6873054 28.0456344,12.2643234 27.6986304,11.9150514 C27.3493584,11.5669134 26.9252424,11.3922774 26.4285504,11.3922774 M10.0048284,11.3922774 C9.4559724,11.3922774 9.0205164,11.5669134 8.6973264,11.9150514 C8.3730024,12.2643234 8.1870264,12.6873054 8.1382644,13.1839974 L8.1382644,17.2153674 C8.1870264,17.6632974 8.3730024,17.8254594 8.6973264,17.7007194 C9.0205164,17.5771134 9.4559724,17.4897954 10.0048284,17.4398994 C10.5015204,17.4897954 10.9245024,17.5771134 11.2737744,17.7007194 C11.6207784,17.8254594 11.7954144,17.6632974 11.7954144,17.2153674 L11.7954144,13.1839974 C11.7954144,12.6873054 11.6207784,12.2643234 11.2737744,11.9150514 C10.9245024,11.5669134 10.5015204,11.3922774 10.0048284,11.3922774 M29.6389044,22.1425974 L29.5640604,22.2922854 L29.4155064,22.5905274 C28.9165464,23.2890714 28.4323284,23.8968954 27.9594504,24.4196694 C27.4854384,24.9424434 27.0261684,25.4028474 26.5782384,25.8020154 C25.6324824,26.6479794 24.7116744,27.2943594 23.8158144,27.7422894 L22.9947984,28.1153754 C22.2962544,27.6674454 21.5500824,27.5937354 20.7551484,27.8919774 C19.9579464,28.1902194 19.1119824,28.3898034 18.2161224,28.4895954 C17.3202624,28.3898034 16.4618244,28.1902194 15.6408084,27.8919774 C14.8197924,27.5937354 14.0600124,27.6674454 13.3637364,28.1153754 L12.6175644,27.7422894 C11.6706744,27.2444634 10.7249184,26.5980834 9.7802964,25.8020154 C9.3323664,25.4028474 8.8719624,24.9424434 8.3990844,24.4196694 C7.9250724,23.8968954 7.4658024,23.2890714 7.0178724,22.5905274 L6.7944744,22.2922854 C6.6935484,22.1425974 6.7196304,22.0189914 6.8681844,21.9191994 L7.0178724,21.8443554 L8.1382644,21.7695114 L8.9592804,21.9191994 C9.5568984,22.0189914 10.3268844,22.1312574 11.2737744,22.2548634 C12.2183964,22.3796034 13.2888924,22.4793954 14.4829944,22.5531054 C15.6782304,22.6279494 16.9097544,22.6789794 18.1787004,22.7027934 C19.4487804,22.7288754 20.6803044,22.6914534 21.8744064,22.5905274 C23.0696424,22.4918694 24.1514784,22.3932114 25.1221824,22.2922854 C26.0928864,22.1936274 26.8515324,22.0688874 27.3992544,21.9191994 L28.2202704,21.7695114 C28.6183044,21.7695114 29.0163384,21.7955934 29.4155064,21.8443554 C29.5640604,21.8942514 29.6389044,21.9940434 29.6389044,22.1425974" id="Fill-10" fill="#2B3B47"></path>
                                <path d="M25.0104834,18.1862982 C24.9605874,18.2361942 24.8857434,18.2611422 24.7859514,18.2611422 C24.5364714,18.2611422 24.3629694,18.1613502 24.2631774,17.9617662 C24.1146234,17.6147622 24.1883334,17.3403342 24.4877094,17.1407502 C25.7816034,16.5442662 27.0505494,16.5442662 28.2945474,17.1407502 C28.5939234,17.2904382 28.6687674,17.5274442 28.5190794,17.8506342 C28.3693914,18.1749582 28.1459934,18.2611422 27.8466174,18.1114542 C26.9008614,17.7134202 25.9551054,17.7383682 25.0104834,18.1862982 M8.5856274,18.1862982 C8.4858354,18.2361942 8.4109914,18.2611422 8.3610954,18.2611422 C8.1127494,18.2611422 7.9381134,18.1613502 7.8383214,17.9617662 C7.6897674,17.6147622 7.7646114,17.3403342 8.0628534,17.1407502 C9.3567474,16.5442662 10.6256934,16.5442662 11.8708254,17.1407502 C12.1691095,17.2904382 12.2439114,17.5274442 12.0942234,17.8506342 C11.9456694,18.1749582 11.6950554,18.2611422 11.3480514,18.1114542 C10.4521914,17.7134202 9.5302494,17.7383682 8.5856274,18.1862982" id="Fill-12" fill="#F2A74E"></path>
                                <path d="M8.9589402,21.9188592 L8.1379242,21.7703052 L9.7799562,21.6206172 L12.6172242,21.5457732 C14.4577062,21.4970112 16.3129302,21.4709292 18.1783602,21.4709292 C20.0449242,21.4709292 21.9239622,21.4970112 23.8154742,21.5457732 L26.5778982,21.6206172 L28.2199302,21.7703052 L27.3989142,21.9188592 C26.8511922,22.0685472 26.0925462,22.1932872 25.1218422,22.2930792 C24.1511382,22.3928712 23.0693022,22.4915292 21.8752002,22.5913212 C20.6799642,22.6911132 19.4484402,22.7285352 18.1783602,22.7024532 C16.9105482,22.6786392 15.6778902,22.6276092 14.4837882,22.5538992 C13.2885522,22.4790552 12.2180562,22.3928712 11.2734342,22.2930792 C10.3276782,22.1433912 9.5565582,22.0186512 8.9589402,21.9188592" id="Fill-14" fill="#FFFFFF"></path>
                                <path d="M22.9944582,28.1153754 C21.4510842,28.8127854 19.8827622,29.1609234 18.2917602,29.1609234 L18.1420722,29.1609234 C16.5476682,29.1609234 14.9566662,28.8127854 13.3633962,28.1153754 C14.0608062,27.6674454 14.8194522,27.4440474 15.6404682,27.4440474 C16.4614842,27.4440474 17.3210562,27.5188914 18.2169162,27.6674454 C19.0617462,27.5188914 19.8963702,27.4440474 20.7173862,27.4440474 C21.5384022,27.4440474 22.2970482,27.6674454 22.9944582,28.1153754" id="Fill-16" fill="#FF473E"></path>
                            </g>
                        </g>
                    </g>
                    <g id="Group-3" transform="translate(1.000000, 7.000000)">
                        <mask id="mask-10" fill="white">
                            <use xlink:href="#path-9"></use>
                        </mask>
                        <g id="Clip-2"></g>
                        <path d="M28.8477126,4.797387 C28.4780286,3.731427 27.8418546,2.880927 26.9403246,2.244753 C26.0376606,1.609713 24.9921126,1.271781 23.8036806,1.229823 C22.3272126,1.271781 21.0764106,1.794555 20.0512746,2.798145 C19.0261386,3.804003 18.5135706,5.065011 18.5135706,6.581169 C18.5135706,8.098461 19.0261386,9.359469 20.0512746,10.364193 C21.0764106,11.368917 22.3272126,11.891691 23.8036806,11.932515 C25.3617966,11.891691 26.6432166,11.379123 27.6479406,10.394811 C28.6526646,9.410499 29.1754386,8.160831 29.2162626,6.642405 C29.2162626,6.438285 29.1958506,6.233031 29.1550266,6.027777 M1.9685106,5.966541 C1.9265526,6.171795 1.9072746,6.377049 1.9072746,6.581169 C1.9469646,8.098461 2.4697386,9.359469 3.4744626,10.364193 C4.4791866,11.368917 5.7401946,11.891691 7.2574866,11.932515 C8.7747786,11.891691 10.0357866,11.368917 11.0405106,10.364193 C12.0452346,9.359469 12.5475966,8.098461 12.5475966,6.581169 C12.5475966,5.065011 12.0452346,3.792663 11.0405106,2.767527 C10.0357866,1.743525 8.7747786,1.209411 7.2574866,1.168587 C6.0679206,1.209411 5.0223726,1.558683 4.1208426,2.214135 C3.2181786,2.870721 2.5831386,3.711015 2.2145886,4.736151 M31.1225166,2.767527 L31.1225166,5.474385 C31.1225166,5.679639 31.0612806,5.842935 30.9388086,5.966541 C30.8152026,6.089013 30.6507726,6.171795 30.4466526,6.212619 L30.4466526,6.581169 C30.4058286,8.468145 29.7696546,10.025127 28.5403986,11.255517 C27.3100086,12.485907 25.7507586,13.122081 23.8649166,13.162905 C22.0198986,13.122081 20.4719886,12.485907 19.2211866,11.255517 C17.9703846,10.025127 17.3240046,8.468145 17.2843146,6.581169 C17.3240046,5.925717 17.4271986,5.289543 17.5916286,4.674915 C16.9758666,4.305231 16.3000026,4.111317 15.5617686,4.089771 C14.8235346,4.069359 14.1465366,4.243995 13.5319086,4.612545 C13.7360286,5.228307 13.8392226,5.883759 13.8392226,6.581169 C13.7983986,8.468145 13.1520186,10.025127 11.9023506,11.255517 C10.6504146,12.485907 9.1036386,13.122081 7.2574866,13.162905 C5.3716446,13.122081 3.8135286,12.485907 2.5831386,11.255517 C1.3527486,10.025127 0.7165746,8.468145 0.6768846,6.581169 L0.6768846,6.212619 C0.2663766,6.171795 0.0407106,5.925717 -0.0001134,5.474385 L-0.0001134,2.767527 C0.0407106,2.358153 0.2856546,2.132487 0.7381206,2.090529 L2.4595326,2.090529 C3.0752946,1.436211 3.7919826,0.932715 4.6129986,0.584577 C5.4328806,0.236439 6.2935866,0.061803 7.1962506,0.061803 C8.4266406,0.061803 9.5334246,0.358911 10.5177366,0.953127 C11.5020486,1.548477 12.2799726,2.337741 12.8549106,3.320919 C13.7167506,2.829897 14.6080746,2.594025 15.5311506,2.614437 C16.4530926,2.634849 17.3240046,2.870721 18.1450206,3.320919 C18.7188246,2.296917 19.4978826,1.487241 20.4821946,0.891891 C21.4665066,0.297675 22.5732906,0.000567 23.8036806,0.000567 C24.7879926,0.000567 25.6804506,0.184275 26.4799206,0.553959 C27.2793906,0.922509 27.9654606,1.414665 28.5403986,2.030427 L30.3842826,2.030427 C30.7947906,2.071251 31.0408686,2.316195 31.1225166,2.767527" id="Fill-1" fill="#2B3B47" mask="url(#mask-10)"></path>
                    </g>
                </g>
            </g>
        </g>
    </g>
</svg>